<svg xmlns="http://www.w3.org/2000/svg" viewBox="0 0 1200 760" preserveAspectRatio="xMidYMid slice">
<defs>
  <linearGradient id="bg" x1="0" y1="0" x2="1" y2="1"><stop offset="0" stop-color="#f7f2e9"/><stop offset=".6" stop-color="#e7eef2"/><stop offset="1" stop-color="#cfdbe3"/></linearGradient>
  <filter id="wash" x="-20%" y="-20%" width="140%" height="140%"><feTurbulence type="fractalNoise" baseFrequency=".025" numOctaves="3" seed="13" result="n"/><feDisplacementMap in="SourceGraphic" in2="n" scale="14"/><feGaussianBlur stdDeviation="1.2"/></filter>
  <filter id="grain"><feTurbulence type="fractalNoise" baseFrequency=".8" numOctaves="2" seed="5" result="g"/><feComponentTransfer><feFuncA type="table" tableValues="0 .07"/></feComponentTransfer></filter>
</defs>
<rect width="1200" height="760" fill="url(#bg)"/>
<rect width="1200" height="760" fill="#fff" filter="url(#grain)"/>
<g filter="url(#wash)">
  <ellipse cx="210" cy="170" rx="210" ry="150" fill="#9fb6c8" opacity=".25"/>
  <ellipse cx="720" cy="150" rx="260" ry="170" fill="#e4c8b4" opacity=".34"/>
  <ellipse cx="970" cy="490" rx="250" ry="180" fill="#7f9caf" opacity=".22"/>
  <path d="M0 520 C240 410 400 435 565 520 C760 620 930 435 1200 500 L1200 760 L0 760 Z" fill="#b9cad4" opacity=".44"/>
  <path d="M0 610 C260 540 460 570 650 632 C850 697 1000 595 1200 605 L1200 760 L0 760 Z" fill="#dce6e9" opacity=".74"/>
</g>
<g transform="translate(790 155)">
  <path d="M65 430 C160 305 245 205 360 90" fill="none" stroke="#596b66" stroke-width="10" stroke-linecap="round" opacity=".75"/>
  <path d="M170 300 C235 250 275 205 330 155M240 235 C290 210 330 172 375 125M125 350 C165 330 210 300 250 265" fill="none" stroke="#667872" stroke-width="6" stroke-linecap="round" opacity=".66"/>
  <g fill="#f6f1ec" stroke="#d8b9ac" stroke-width="2" opacity=".95">
    <circle cx="338" cy="143" r="23"/><circle cx="315" cy="168" r="18"/><circle cx="362" cy="118" r="17"/><circle cx="265" cy="225" r="21"/><circle cx="238" cy="246" r="16"/><circle cx="198" cy="291" r="22"/><circle cx="157" cy="326" r="17"/>
  </g>
  <g fill="#d8a79f" opacity=".5"><circle cx="338" cy="143" r="6"/><circle cx="315" cy="168" r="5"/><circle cx="265" cy="225" r="6"/><circle cx="198" cy="291" r="6"/></g>
</g>
</svg>